<svg width="24" height="25" viewBox="0 0 24 25" fill="none" xmlns="http://www.w3.org/2000/svg">
<path opacity="0.4" d="M11.9912 19.1215L5.49945 22.3641C5.00921 22.6302 4.39768 22.4525 4.12348 21.9643C4.0434 21.8108 4.00106 21.6402 4 21.4668V14.2088C4 14.9284 4.40573 15.3726 5.47299 15.8701L11.9912 19.1215Z" fill="#8A92A6"/>
<path fill-rule="evenodd" clip-rule="evenodd" d="M8.89526 2.5H15.0695C17.7773 2.5 19.9735 3.56605 20 6.29337V21.4668C19.9989 21.6374 19.9565 21.8051 19.8765 21.9554C19.7479 22.2007 19.5259 22.3827 19.2615 22.4598C18.997 22.5368 18.7128 22.5023 18.4741 22.3641L11.9912 19.1215L5.47299 15.8701C4.40573 15.3726 4 14.9284 4 14.2088V6.29337C4 3.56605 6.19625 2.5 8.89526 2.5ZM8.22492 10.1223H15.7486C16.1822 10.1223 16.5336 9.76828 16.5336 9.33162C16.5336 8.89495 16.1822 8.54096 15.7486 8.54096H8.22492C7.79137 8.54096 7.43991 8.89495 7.43991 9.33162C7.43991 9.76828 7.79137 10.1223 8.22492 10.1223Z" fill="#8A92A6"/>
</svg>
